<svg width="20" height="20" fill="none" xmlns="http://www.w3.org/2000/svg"><g clip-path="url(#a)"><path d="M17.073 18.726.363 2.026l1.273-1.3 16.71 16.727-1.273 1.273ZM20 10.908h-4.164a5.6 5.6 0 0 0-.218-.937c-.1-.309-.227-.6-.373-.89h2.864c-.064-.11-.127-.2-.209-.273-.082-.073-.164-.146-.273-.21a4.6 4.6 0 0 0-1.354-.5 8.35 8.35 0 0 0-1.737-.163h-.072a5.82 5.82 0 0 0-.991-.91 6.122 6.122 0 0 0-1.173-.663c.345-.072.71-.136 1.082-.182a9.447 9.447 0 0 1 1.145-.072c.8 0 1.555.082 2.255.254.7.173 1.345.41 1.954.728.391.209.7.527.918.945.219.418.328.89.328 1.418v1.437l.018.018Zm-5.454-5.455c-.755 0-1.4-.263-1.937-.8a2.62 2.62 0 0 1-.8-1.936c0-.764.264-1.4.8-1.937a2.621 2.621 0 0 1 1.937-.8c.763 0 1.4.264 1.936.8.536.537.8 1.173.8 1.937 0 .763-.264 1.4-.8 1.936a2.62 2.62 0 0 1-1.936.8Zm0-1.818c.254 0 .472-.09.645-.264a.885.885 0 0 0 .263-.645.885.885 0 0 0-.263-.646.885.885 0 0 0-.646-.263.885.885 0 0 0-.645.263.885.885 0 0 0-.264.646c0 .254.091.473.264.645.173.173.39.264.646.264ZM0 10.908V9.47c0-.527.11-1 .327-1.418.218-.418.528-.727.918-.945A8.244 8.244 0 0 1 3.2 6.38a9.838 9.838 0 0 1 2.255-.254c.2 0 .39 0 .581.009.191.01.382.027.582.055v1.818a6.6 6.6 0 0 0-.582-.055c-.19-.009-.381-.009-.581-.009-.655 0-1.228.055-1.737.164-.509.109-.954.272-1.354.5-.11.063-.2.127-.273.209-.073.082-.146.163-.21.273h2.864c-.154.29-.272.581-.372.89-.1.31-.173.619-.218.937H0v-.01Zm7.727-6.655-3.79-3.8a2.34 2.34 0 0 1 .708-.345 2.7 2.7 0 0 1 .819-.118c.754 0 1.4.263 1.936.8.536.536.8 1.172.8 1.936 0 .29-.036.564-.118.818-.082.255-.191.491-.346.71h-.009ZM10 13.635c-.5 0-.927-.182-1.282-.536a1.752 1.752 0 0 1-.536-1.282V9.09c0-.255.045-.491.136-.71.091-.209.218-.4.391-.572l3.118 3.118v.89c0 .5-.181.928-.536 1.283a1.751 1.751 0 0 1-1.282.536H10Zm-.682 4.545v-1.863c-1.09-.164-2.009-.673-2.754-1.527-.746-.846-1.119-1.846-1.119-2.982H6.81c0 .882.31 1.627.936 2.254A3.082 3.082 0 0 0 10 15c.8 0 1.5-.264 2.1-.8.6-.528.955-1.182 1.055-1.955l1.118 1.136a4.606 4.606 0 0 1-1.391 1.955 4.443 4.443 0 0 1-2.21.982v1.863H9.31h.01Z" fill="#fff"/></g><defs><clipPath id="a"><path fill="#fff" d="M0 0h20v18.727H0z"/></clipPath></defs></svg>